<?xml version="1.0" standalone="no"?>
<!DOCTYPE svg PUBLIC "-//W3C//DTD SVG 20010904//EN"
 "http://www.w3.org/TR/2001/REC-SVG-20010904/DTD/svg10.dtd">
<svg version="1.0" xmlns="http://www.w3.org/2000/svg"
 width="160.000000pt" height="160.000000pt" viewBox="0 0 160.000000 160.000000"
 preserveAspectRatio="xMidYMid meet">
<metadata>
Created by potrace 1.14, written by Peter Selinger 2001-2017
</metadata>
<g transform="translate(0.000000,160.000000) scale(0.100000,-0.100000)"
fill="#000000" stroke="none">
<path d="M664 1514 c-57 -17 -84 -32 -116 -65 -15 -16 -46 -38 -68 -49 -22
-11 -51 -37 -65 -58 -28 -43 -57 -120 -50 -132 3 -5 1 -11 -4 -14 -12 -8 -12
-141 0 -191 5 -22 11 -65 13 -95 5 -81 16 -132 32 -158 8 -13 12 -31 9 -41 -5
-15 -16 -18 -76 -16 -111 3 -106 25 -84 -338 3 -50 0 -61 -22 -85 -45 -49 -87
-149 -100 -239 l-5 -32 690 0 690 1 -9 41 c-18 82 -79 214 -108 232 -10 6 -9
44 5 240 13 178 12 181 -95 180 -90 -1 -101 7 -76 56 9 16 22 69 29 118 7 48
16 93 19 98 24 38 27 183 6 261 -19 73 -54 127 -123 188 -88 80 -192 113 -349
112 -56 -1 -121 -7 -143 -14z"/>
</g>
</svg>
